{"title":"Chasing.Mavericks.2012.BRRip.XviD.AC3-BTRG.avi","uid":8158160,"size":734689280,"categoryP":"video","categoryS":"movies","magnet":"?xt=urn:btih:5ecfc68027f09c96f561a52125079802feff9677&amp;dn=Chasing.Mavericks.2012.BRRip.XviD.AC3-BTRG.avi&amp;tr=udp%3A%2F%2Ftracker.openbittorrent.com%3A80&amp;tr=udp%3A%2F%2Fopen.demonii.com%3A1337&amp;tr=udp%3A%2F%2Ftracker.coppersurfer.tk%3A6969&amp;tr=udp%3A%2F%2Fexodus.desync.com%3A6969","seeders":2,"leechers":1,"uploader":"xxxlavalxxx","files":1,"time":1361199505,"description":" &lt;a href=&quot;http://bayimg.com/DajpjAAeL&quot; rel=&quot;nofollow&quot; target=&quot;_NEW&quot;&gt;http://bayimg.com/DajpjAAeL&lt;/a&gt;\n\n &lt;a href=&quot;\nhttp://www.imdb.com/title/tt1629757/&quot; rel=&quot;nofollow&quot; target=&quot;_NEW&quot;&gt;\nhttp://www.imdb.com/title/tt1629757/&lt;/a&gt;\n\n\nWhen young Jay Moriarty discovers that the mythic Mavericks surf break, one of the biggest waves on Earth, exists just miles from his Santa Cruz home, he enlists the help of local legend Frosty Hesson to train him to survive it. \n\n\n\nDirectors:\n Michael Apted, Curtis Hanson\n\nWriters:\n Kario Salem (screenplay), Jim Meenaghan (story)\n\nStars:\n Jonny Weston, Gerard Butler, Elisabeth Shue\n\nGenres:\n Drama | Sport \n\nCountry:\nUSA\n\nLanguage:\nEnglish \n\n\n\nFormat                                   : AVI\nFormat/Info                              : Audio Video Interleave\nFile size                                : 701 MiB\nDuration                                 : 1h 56mn\nOverall bit rate                         : 841 Kbps\nWriting application                      : VirtualDubMod 1.5.10.3 | www.virtualdub-fr.org || (build 2550/release)\nWriting library                          : VirtualDubMod build 2550/release\n\nVideo\nID                                       : 0\nFormat                                   : MPEG-4 Visual\nFormat profile                           : Advanced Simple@L5\nFormat settings, BVOP                    : 1\nFormat settings, QPel                    : No\nFormat settings, GMC                     : No warppoints\nFormat settings, Matrix                  : Custom\nCodec ID                                 : XVID\nCodec ID/Hint                            : XviD\nDuration                                 : 1h 56mn\nBit rate                                 : 703 Kbps\nWidth                                    : 672 pixels\nHeight                                   : 368 pixels\nDisplay aspect ratio                     : 1.85:1\nFrame rate                               : 23.976 fps\nColor space                              : YUV\nChroma subsampling                       : 4:2:0\nBit depth                                : 8 bits\nScan type                                : Progressive\nCompression mode                         : Lossy\nBits/(Pixel*Frame)                       : 0.119\nStream size                              : 586 MiB (84%)\nWriting library                          : XviD 1.2.1 (UTC 2008-12-04)\n\nAudio\nID                                       : 1\nFormat                                   : AC-3\nFormat/Info                              : Audio Coding 3\nMode extension                           : CM (complete main)\nFormat settings, Endianness              : Big\nCodec ID                                 : 2000\nDuration                                 : 1h 56mn\nBit rate mode                            : Constant\nBit rate                                 : 128 Kbps\nChannel(s)                               : 6 channels\nChannel positions                        : Front: L C R, Side: L R, LFE\nSampling rate                            : 48.0 KHz\nBit depth                                : 16 bits\nCompression mode                         : Lossy\nStream size                              : 107 MiB (15%)\nAlignment                                : Split accross interleaves\nInterleave, duration                     : 42 ms (1.00 video frame)\nInterleave, preload duration             : 500 ms\n\n\n &lt;a href=&quot;\nhttp://bayimg.com/DaJPLAaEl&quot; rel=&quot;nofollow&quot; target=&quot;_NEW&quot;&gt;\nhttp://bayimg.com/DaJPLAaEl&lt;/a&gt;\n &lt;a href=&quot;\nhttp://bayimg.com/DaJpmAael&quot; rel=&quot;nofollow&quot; target=&quot;_NEW&quot;&gt;\nhttp://bayimg.com/DaJpmAael&lt;/a&gt;","torrent":{"xt":"urn:btih:5ecfc68027f09c96f561a52125079802feff9677","amp;dn":"Chasing.Mavericks.2012.BRRip.XviD.AC3-BTRG.avi","amp;tr":["udp%3A%2F%2Ftracker.openbittorrent.com%3A80","udp%3A%2F%2Fopen.demonii.com%3A1337","udp%3A%2F%2Ftracker.coppersurfer.tk%3A6969","udp%3A%2F%2Fexodus.desync.com%3A6969"],"infoHash":"5ecfc68027f09c96f561a52125079802feff9677","infoHashBuffer":{"type":"Buffer","data":[94,207,198,128,39,240,156,150,245,97,165,33,37,7,152,2,254,255,150,119]},"announce":[],"urlList":[]}}